# xmcd
#
# Track frame offsets: 
#        150
#        17191
#        30132
#        39505
#        53503
#        79316
#        94442
#        116711
#        130995
#        146588
#        164379
#        175840
#        188957
#        212878
#
# Disc length: 3164 seconds
#
# Revision: 1
# Processed by: cddbd v1.5.2PL0 Copyright (c) Steve Scherf et al.
# Submitted via: ExactAudioCopyFreeDBPlugin 1.0
#
DISCID=c00c5a0e
DTITLE=Graham Bond - Mighty Grahame Bond
DYEAR=1969
DGENRE=Blues
TTITLE0=Water, Water
TTITLE1=Oh Shining One
TTITLE2=Pictures of Fire
TTITLE3=Baroque
TTITLE4=Sisters and Brothers
TTITLE5=Stiffnecked Chicken
TTITLE6=Freaky Beak
TTITLE7=Walk Onto Me
TTITLE8=Magic Mojo
TTITLE9=Brothers and Sisters
TTITLE10=You've Gotta Have Love Baby [Bonus Track]
TTITLE11=I Love You [Bonus Track]
TTITLE12=Blew Through [Bonus Track]
TTITLE13=Water, Water [Bonus Track]
EXTD=
EXTT0=
EXTT1=
EXTT2=
EXTT3=
EXTT4=
EXTT5=
EXTT6=
EXTT7=
EXTT8=
EXTT9=
EXTT10=
EXTT11=
EXTT12=
EXTT13=
PLAYORDER=
